<svg width="132" height="132" viewBox="0 0 132 132" fill="none" xmlns="http://www.w3.org/2000/svg">
<path d="M32.9998 11C32.0434 11 31.1232 11.332 30.3912 11.9296L29.9759 12.3195L11.9783 31.7253L11.8094 31.9393C11.2501 32.6855 10.9976 33.5316 10.9976 34.3626L11.0059 44.9171C11.0059 50.3851 13.0882 55.3668 16.5026 59.1129L16.507 116.875C16.507 118.963 18.0585 120.689 20.0721 120.963L20.632 121H111.368C113.456 121 115.182 119.448 115.455 117.435L115.493 116.875L115.497 59.1129C118.649 55.655 120.666 51.1441 120.957 46.1699L120.994 44.9171L120.995 34.6003C121.039 33.8451 120.876 33.0681 120.467 32.3572L120.108 31.8322L119.893 31.5806L102.024 12.3195C101.373 11.6184 100.504 11.1695 99.5682 11.0393L98.9999 11H32.9998ZM49.0494 57.4315L49.1148 57.5289C52.9588 62.6692 59.094 65.9961 66.0064 65.9961C72.9573 65.9961 79.1227 62.6318 82.9624 57.4425C86.7984 62.6318 92.9636 65.9961 99.9146 65.9961C102.495 65.9961 104.967 65.5325 107.251 64.6844L107.244 112.744H99.002L98.9999 75.6305C98.9999 73.5421 97.4481 71.8162 95.4346 71.5434L94.8749 71.5055H70.1474C68.059 71.5055 66.3331 73.0576 66.0598 75.0706L66.0224 75.6305L66.024 112.744H24.7608L24.7597 64.6882C27.0411 65.5341 29.509 65.9961 32.0852 65.9961C39.041 65.9961 45.2098 62.6268 49.0494 57.4315ZM74.2773 79.7555H90.7499V112.744H74.2773V79.7555ZM37.099 71.5055C35.0106 71.5055 33.2847 73.0576 33.0114 75.0706L32.974 75.6305V94.8915C32.974 96.9798 34.5255 98.7057 36.5391 98.9791L37.099 99.0165H56.3567C58.445 99.0165 60.1709 97.4649 60.4443 95.4514L60.4817 94.8915V75.6305C60.4817 73.5421 58.9301 71.8162 56.9166 71.5434L56.3567 71.5055H37.099ZM41.2278 79.7555H52.2333V90.7665H41.2278V79.7555ZM87.0869 38.511H112.744L112.744 44.9171L112.71 45.8577L112.554 47.1295L112.374 47.989L112.102 48.9349L111.803 49.748L111.579 50.265C111.408 50.6383 111.219 51.002 111.014 51.355L110.448 52.243L110.149 52.6539L109.441 53.51L108.661 54.3025L108.132 54.7696L107.9 54.9584C106.17 56.3359 104.077 57.2759 101.786 57.6108L100.793 57.7164L99.9146 57.7461C93.1246 57.7461 87.5665 52.471 87.1151 45.7954L87.0855 44.9171L87.0869 38.511ZM53.1793 38.511H78.8369L78.8355 44.9171C78.8355 51.412 74.0089 56.7798 67.7472 57.629L66.8848 57.7164L66.0064 57.7461C59.2161 57.7461 53.6584 52.471 53.2068 45.7954L53.1771 44.9171L53.1793 38.511ZM19.2608 38.511H44.9183L44.9145 44.9171C44.9145 51.412 40.0877 56.7798 33.8259 57.629L32.9635 57.7164L32.0852 57.7461C28.9815 57.7461 26.1353 56.6439 23.9166 54.8098L23.4227 54.3802L22.7858 53.7548L21.9817 52.8242C21.6847 52.445 21.408 52.0485 21.1545 51.6367L20.5852 50.6098L20.2393 49.8511L19.9186 48.998L19.7547 48.4723L19.5446 47.6359L19.3884 46.7694L19.2894 45.8523L19.2559 44.9171L19.2608 38.511ZM82.161 19.2445H97.2014L107.42 30.261H85.549L82.161 19.2445ZM58.4725 19.2445H73.5315L76.9195 30.261H55.0845L58.4725 19.2445ZM34.8038 19.2445H49.843L46.455 30.261H24.5848L34.8038 19.2445Z" fill="#222222"/>
</svg>
