<svg id="Capa_1" data-name="Capa 1" xmlns="http://www.w3.org/2000/svg" viewBox="0 0 512.51 256.86"><defs><style>.cls-1{fill:#36a936;}.cls-2{fill:#d81c1c;}</style></defs><g id="Capa_1-2" data-name="Capa 1-2"><path class="cls-1" d="M141.81,411.4a12.22,12.22,0,0,1,.52-10.38,10.5,10.5,0,0,1,3-2.81c1.1-.9,7.77-6.92,6.51-12.62a10.47,10.47,0,0,0-10.1-7.25c-6.39,0-9.6,6.93-10.42,8.68a19.31,19.31,0,0,0-1.67,8.14A71.64,71.64,0,0,0,131,413.23" transform="translate(-51.6 -195.76)"/><path class="cls-2" d="M557.86,400.25v36l-121.8-.21a191.92,191.92,0,0,0-37.13,3.38c-24.42,5.9-53.33,14.13-94.73,13.07-45.14-1.14-84.67-15.84-108.73-26.09,6.23-9.29,15.31-39.55,15.37-50.73,13.18.51,12.88,31.92,79.52,40.85,39.32,7.54,78.64-12.51,123.92-15.2C426.41,399.19,518.45,400.05,557.86,400.25Z" transform="translate(-51.6 -195.76)"/><path class="cls-2" d="M51.6,408.6v33.79h82.46c100.85,1.74,86.64-73.16,62.95-63.51-.15-5.6-20.6,11.2-20.6,11.2a68.41,68.41,0,0,1-43.18,18.15C118.29,409.41,51.6,408.6,51.6,408.6Z" transform="translate(-51.6 -195.76)"/><path class="cls-1" d="M219.23,198.37C145.67,173.3,87.46,336.75,173.31,340.16c11-.05,17-17.3,14.29-20.36s-9.76,9.83-22.11,6.52c-40.88-16.17.35-142.64,51-117.89-4.42,5-17.75,20.35-19.62,44.49s0,87.11,0,87.11,0,19.46-1.59,36.64c-.28,3.18-.65,6.27-1.06,9.16A77.13,77.13,0,0,1,184.75,413h0l-14.58,26c.28,0,26.65-5.69,36.52-21.65A57,57,0,0,0,216.34,386V326.28c26.13-8.51,44.37-33,44-60.45C262,214.54,222.26,199.3,219.23,198.37Zm-8.39,117.12V267.78a135.8,135.8,0,0,1,11.32-53.33s21.58,15.27,21.58,53.65A47.76,47.76,0,0,1,210.84,315.49Z" transform="translate(-51.6 -195.76)"/><circle class="cls-2" cx="419.58" cy="48.62" r="32.69"/></g><path class="cls-2" d="M52.26,328.62c2.87,0,10.53.26,15.14.26H83a104,104,0,0,0,12.79-.61c-.43,2.87-.43,12-.35,16.27l-2.52.26A29.5,29.5,0,0,0,90,336.19c-2.18-3.74-3.92-4.44-12-4.44H75.23c-1.22,0-1.66.53-1.66,1.48-.17,2.7-.43,7.66-.43,12.79v7.66c1,.09,3,.09,4.18.09,6.35,0,8.09-2.44,9-8.18h2.35a129.91,129.91,0,0,0-.34,20.79l-2.53-.09c-.87-5.91-1.82-9.48-8.7-9.48a29.51,29.51,0,0,0-4,.17v6c0,6.52.09,12.35.26,15.4.09,1.56.52,2.17,5.31,2.17,6.78,0,9.57-.34,12.53-2.87s5.22-7.74,6.26-11.4l2.44.61c-.09,2.27-1.92,14.71-2.44,17-3.83-.17-9.74-.35-18.88-.35H67.83c-5.31,0-12.7.26-16.09.26l.08-2.69,4.53-.35c1.74-.18,2.43-.87,2.61-2.79.17-3.13.43-8.18.43-15.57v-16c0-6.87-.08-10.53-.26-12.88-.09-1.39-.87-1.82-2.78-2l-4.09-.26Z" transform="translate(-51.6 -195.76)"/><path class="cls-2" d="M107.37,326.53a177,177,0,0,0,17.84-1.22c-.09,2.44-.35,6.79-.35,17.06v22.1c0,8.18,0,11.4.09,13.66.17,2.43.87,2.78,5.13,3l-.09,2.69c-3.13,0-8.44-.26-12.18-.26-4.7,0-8.35.26-11.14.26v-2.69c4.27-.09,5-.7,5.23-3.4.08-1.74.34-6.78.34-14.09V342.46c0-6.27,0-9-.08-11-.18-1.92-.61-2.09-4.88-2.18Z" transform="translate(-51.6 -195.76)"/><path class="cls-2" d="M234.63,344.92c0-6.18-.17-9.23-.26-11.14-.09-1.31-.52-2-2.17-2.18l-5.22-.43.69-2.7c1.92,0,7.48.26,11.92.26s9.66-.34,15.58-.34c9.48,0,13.13,1.65,15.83,4.08,2.87,2.61,4.53,6.88,4.53,11.84,0,5.57-1.83,9.66-4.62,12.35-3.74,3.66-9.13,5-14,5a22,22,0,0,1-6.18-.78l.09-2.79a16,16,0,0,0,3.56.44,5.25,5.25,0,0,0,4.27-2.35c1.3-2.18,2.26-6,2.26-11.31s-1.05-9.23-2.61-11c-1.39-1.65-3.22-2.52-6.27-2.52-2.69,0-3.22.35-3.3,1.57-.18,2.52-.44,6.78-.44,13.22v22.54c0,4.69.18,7.39.26,9,.18,1.83.87,2.27,3.22,2.53l5,.61-.17,2.69c-4,0-9-.26-15.84-.26-5.13,0-10.09.26-13.74.26v-2.69l3.39-.35c3-.26,3.65-.7,3.83-3.39.17-3.57.43-9.75.43-16.1Z" transform="translate(-51.6 -195.76)"/><path class="cls-2" d="M301.1,383.63c-3.22,0-6.7-.26-12.18-.26-5.74,0-8.27.26-11,.26v-2.69c4.52-.18,5.13-.87,5.22-2.61s.26-4.53.26-9.23v-9.48c0-3.83,0-7.13-.17-8.53s-.79-1.74-4.79-1.65l.09-2.7c5.65-.34,12.18-.61,17.75-1.65-.09,2.09-.27,5.57-.27,13.92v10.18c0,5,.18,7,.27,9s.78,2.44,4.78,2.79Zm-11.92-56.11c4,0,6.44,2.34,6.44,6.43,0,3.66-2.78,6.18-6.79,6.18a5.86,5.86,0,0,1-6.17-6.09,6.18,6.18,0,0,1,6.43-6.52Z" transform="translate(-51.6 -195.76)"/><path class="cls-2" d="M302.4,380.94c4.18-.18,4.7-.52,4.88-2.7.17-2.7.26-5.48.26-9.48v-8.27c0-4.09-.09-7.39-.26-9.66-.09-1.13-.61-1.39-4.35-1.56l.08-2.7a104.82,104.82,0,0,0,16.53-1.22c.27,1.65.61,4.26.7,5.66,3.05-2.79,7.14-6,13.31-6,5.57,0,8.7,2.61,10,5a10.33,10.33,0,0,1,1.3,5.4V378.5c0,1.83.44,2,5.05,2.44l-.09,2.69c-3.56,0-7.13-.26-11.48-.26-5.31,0-8.79.26-10.44.26v-2.69c3.13-.18,3.91-.79,4-2.53s.35-4.78.35-11.66c.08-11.83,0-12.78-.7-13.92a4.15,4.15,0,0,0-4-2.26,7.76,7.76,0,0,0-6.53,3.92,6.68,6.68,0,0,0-.87,3.74v11c0,3.31,0,7,.18,9.48.09,1.57.87,2,4.35,2.27v2.69c-2.09,0-7.14-.26-11.14-.26-4.78,0-8.44.26-11.14.26Zm11.49-41.42c.17-5.65,2.17-11.4,7.66-11.4,1.74,0,3.39.79,5.91,2.79,2.18,1.74,3.48,2.52,4.27,2.52,1.47,0,2.52-1.56,2.78-5.39l3,.61c-.18,6-2,11.31-7.05,11.31-2,0-3.65-.87-6.53-3.13-1.65-1.4-2.52-2.18-3.91-2.18-1.57,0-2.87,1.74-3.05,5.22Z" transform="translate(-51.6 -195.76)"/><path class="cls-2" d="M373.83,345c12.18,0,20.71,7.23,20.71,19.58s-8.35,20-21.4,20c-14.27,0-21-8.26-21-19.4,0-11.57,7.65-20.19,21.58-20.19Zm-.61,2.87c-2.43,0-3.91,1.4-5,3.4-1.13,2.26-2,6.78-2,12.09,0,6.35.78,11.23,2.17,14.27,1.22,2.79,3.22,4.09,5.66,4.09a5.2,5.2,0,0,0,5-3.57c1.13-2.87,1.74-7,1.74-12.7,0-6.26-1-11.4-2.26-13.92-1.13-2.26-2.7-3.66-5.22-3.66Z" transform="translate(-51.6 -195.76)"/><path class="cls-2" d="M397,380.94c4.18-.18,4.7-.52,4.87-2.7.18-2.7.27-5.48.27-9.48v-8.27c0-4.09-.09-7.39-.27-9.66-.08-1.13-.6-1.39-4.35-1.56l.09-2.7a104.91,104.91,0,0,0,16.53-1.22c.26,1.65.61,4.26.7,5.66,3-2.79,7.13-6,13.31-6,5.57,0,8.7,2.61,10,5a10.33,10.33,0,0,1,1.3,5.4V378.5c0,1.83.44,2,5.05,2.44l-.09,2.69c-3.57,0-7.13-.26-11.48-.26-5.31,0-8.79.26-10.45.26v-2.69c3.14-.18,3.92-.79,4-2.53s.35-4.78.35-11.66c.08-11.83,0-12.78-.7-13.92a4.15,4.15,0,0,0-4-2.26,7.75,7.75,0,0,0-6.53,3.92,6.6,6.6,0,0,0-.87,3.74v11c0,3.31,0,7,.18,9.48.08,1.57.87,2,4.35,2.27v2.69c-2.09,0-7.14-.26-11.14-.26-4.79,0-8.44.26-11.14.26Z" transform="translate(-51.6 -195.76)"/><path class="cls-2" d="M466.83,384.59c-7.48,0-12.35-2.17-15.31-5.92-2.52-3-3.92-7.83-3.92-13.22,0-11,6.44-20.45,20-20.45,14.7,0,16.7,10.79,16.7,15.58,0,1.74-.52,3-1.48,3.48-1.39.69-4.7,1.13-10.35,1.3-2.44.09-7,.09-11.31.09a20.53,20.53,0,0,0,1.82,9.31c1.48,3.13,4,5,8.1,5,4.61,0,8.09-2.52,10.44-8.61l2.69,1.47C481.1,381.37,474.92,384.59,466.83,384.59Zm.61-36.8c-3.83,0-5.91,6.18-6.09,14.7h4.35A19.39,19.39,0,0,0,471,362c1-.26,1.57-1.22,1.57-3.57,0-3.22-.79-10.61-5.05-10.61Z" transform="translate(-51.6 -195.76)"/><path class="cls-2" d="M491.63,362.06a79.6,79.6,0,0,0-.52-11,1.68,1.68,0,0,0-1.83-1.48h-2.87l.09-2.69c4.69-.18,11.57-.52,16-1.74l.44.26a66,66,0,0,1,.69,9.13H504c2.18-5.48,5-9.57,10.7-9.57a5.93,5.93,0,0,1,6,6.27c0,5.22-4,6.78-5.66,6.78s-2.87-.52-3.39-1.65c-.7-1.65-1.22-2.7-2.78-2.7-1.83,0-3,1.74-3.83,4.09a12.91,12.91,0,0,0-.79,5c0,8.44,0,13.14.09,15.23s1,2.61,7.4,2.87l-.27,2.69c-4.52-.08-8.61-.26-13.31-.26s-8.35.18-12.09.26l.35-2.69c4-.18,4.7-.61,4.87-2.09.17-2.09.35-6.09.35-10.79Z" transform="translate(-51.6 -195.76)"/><path class="cls-2" d="M543.39,345c12.19,0,20.71,7.23,20.71,19.58s-8.35,20-21.4,20c-14.27,0-21-8.26-21-19.4,0-11.57,7.66-20.19,21.58-20.19Zm-.6,2.87c-2.44,0-3.92,1.4-5,3.4-1.13,2.26-2,6.78-2,12.09,0,6.35.78,11.23,2.17,14.27,1.22,2.79,3.22,4.09,5.66,4.09a5.2,5.2,0,0,0,5-3.57c1.14-2.87,1.74-7,1.74-12.7,0-6.26-1-11.4-2.26-13.92-1.13-2.26-2.69-3.66-5.22-3.66Z" transform="translate(-51.6 -195.76)"/></svg>